<svg width="30" height="30" viewBox="0 0 30 30" fill="none" xmlns="http://www.w3.org/2000/svg">
<path d="M21.1642 0H8.66552C3.23652 0 0 3.23652 0 8.66552V21.1492C0 26.5932 3.23652 29.8297 8.66552 29.8297H21.1492C26.5782 29.8297 29.8148 26.5932 29.8148 21.1642V8.66552C29.8297 3.23652 26.5932 0 21.1642 0ZM14.9148 20.7018C11.7231 20.7018 9.12788 18.1066 9.12788 14.9148C9.12788 11.7231 11.7231 9.12788 14.9148 9.12788C18.1066 9.12788 20.7018 11.7231 20.7018 14.9148C20.7018 18.1066 18.1066 20.7018 14.9148 20.7018ZM23.7444 7.27844C23.6698 7.45742 23.5654 7.62148 23.4312 7.77063C23.2821 7.90486 23.118 8.00927 22.939 8.08384C22.76 8.15842 22.5662 8.20316 22.3723 8.20316C21.9696 8.20316 21.5967 8.05401 21.3133 7.77063C21.1791 7.62148 21.0747 7.45742 21.0001 7.27844C20.9255 7.09946 20.8808 6.90557 20.8808 6.71168C20.8808 6.51778 20.9255 6.32389 21.0001 6.14491C21.0747 5.95102 21.1791 5.80187 21.3133 5.65272C21.6563 5.30968 22.1784 5.14562 22.6556 5.25002C22.76 5.26494 22.8495 5.29477 22.939 5.33951C23.0285 5.36934 23.118 5.41409 23.2075 5.47375C23.2821 5.51849 23.3566 5.59306 23.4312 5.65272C23.5654 5.80187 23.6698 5.95102 23.7444 6.14491C23.819 6.32389 23.8637 6.51778 23.8637 6.71168C23.8637 6.90557 23.819 7.09946 23.7444 7.27844Z" fill="#292D32"/>
</svg>
