<svg width="30" height="30" viewBox="0 0 30 30" fill="none" xmlns="http://www.w3.org/2000/svg">
<path d="M29.8148 21.1536C29.8148 26.5799 26.5799 29.8148 21.1536 29.8148H19.3796C18.5597 29.8148 17.8889 29.144 17.8889 28.3241V19.7225C17.8889 19.32 18.2169 18.9771 18.6194 18.9771L21.2431 18.9324C21.4518 18.9175 21.6306 18.7684 21.6754 18.5597L22.1971 15.7124C22.2419 15.4441 22.0331 15.1906 21.7499 15.1906L18.5746 15.2354C18.1572 15.2354 17.8293 14.9074 17.8144 14.5049L17.7547 10.8526C17.7547 10.6141 17.9485 10.4054 18.2019 10.4054L21.7797 10.3457C22.0331 10.3457 22.2269 10.152 22.2269 9.89853L22.1673 6.32073C22.1673 6.0673 21.9735 5.87352 21.7201 5.87352L17.6951 5.93316C15.2205 5.97789 13.2527 8.00528 13.2974 10.4799L13.3719 14.5794C13.3869 14.9969 13.0589 15.3248 12.6415 15.3397L10.8526 15.3695C10.5992 15.3695 10.4054 15.5633 10.4054 15.8168L10.4501 18.6492C10.4501 18.9026 10.6439 19.0964 10.8973 19.0964L12.6862 19.0666C13.1036 19.0666 13.4316 19.3945 13.4465 19.797L13.5806 28.2943C13.5956 29.1291 12.9247 29.8148 12.0899 29.8148H8.6612C3.23491 29.8148 0 26.5799 0 21.1387V8.6612C0 3.23491 3.23491 0 8.6612 0H21.1536C26.5799 0 29.8148 3.23491 29.8148 8.6612V21.1536Z" fill="black"/>
</svg>
